<svg xmlns="http://www.w3.org/2000/svg" xmlns:xlink="http://www.w3.org/1999/xlink" width="500" zoomAndPan="magnify" viewBox="0 0 375 374.999991" height="500" preserveAspectRatio="xMidYMid meet" version="1.0"><defs><g/><clipPath id="b7ce93ddf9"><path d="M 27 119 L 139 119 L 139 272 L 27 272 Z M 27 119 " clip-rule="nonzero"/></clipPath><clipPath id="9913b31c4b"><path d="M 34.570312 119.886719 C 30.75 119.886719 27.65625 122.980469 27.65625 126.796875 L 27.65625 265.074219 C 27.65625 268.894531 30.75 271.988281 34.570312 271.988281 L 131.363281 271.988281 C 135.179688 271.988281 138.277344 268.894531 138.277344 265.074219 L 138.277344 154.453125 C 138.277344 150.636719 135.179688 147.539062 131.363281 147.539062 L 124.449219 147.539062 L 124.449219 140.625 C 124.449219 136.808594 121.351562 133.710938 117.535156 133.710938 L 110.621094 133.710938 L 110.621094 126.796875 C 110.621094 122.980469 107.523438 119.886719 103.707031 119.886719 Z M 89.878906 133.710938 L 89.878906 168.28125 L 124.449219 168.28125 L 124.449219 161.367188 L 117.535156 161.367188 C 113.714844 161.367188 110.621094 158.273438 110.621094 154.453125 L 110.621094 147.539062 L 103.707031 147.539062 C 99.886719 147.539062 96.792969 144.445312 96.792969 140.625 L 96.792969 133.710938 Z M 76.050781 133.710938 L 41.484375 133.710938 L 41.484375 258.160156 L 124.449219 258.160156 L 124.449219 182.109375 L 82.964844 182.109375 C 79.148438 182.109375 76.050781 179.011719 76.050781 175.195312 Z M 76.050781 133.710938 " clip-rule="evenodd"/></clipPath><linearGradient x1="12" gradientTransform="matrix(6.913793, 0, 0, 6.913793, 0.0000045, 112.971127)" y1="1.000001" x2="12" gradientUnits="userSpaceOnUse" y2="23.000001" id="79cfd4a517"><stop stop-opacity="1" stop-color="rgb(67.098999%, 34.498596%, 99.998474%)" offset="0"/><stop stop-opacity="1" stop-color="rgb(67.227173%, 34.70459%, 99.743652%)" offset="0.00390625"/><stop stop-opacity="1" stop-color="rgb(67.356873%, 34.910583%, 99.490356%)" offset="0.0078125"/><stop stop-opacity="1" stop-color="rgb(67.485046%, 35.115051%, 99.235535%)" offset="0.0117188"/><stop stop-opacity="1" stop-color="rgb(67.61322%, 35.321045%, 98.982239%)" offset="0.015625"/><stop stop-opacity="1" stop-color="rgb(67.741394%, 35.525513%, 98.727417%)" offset="0.0195312"/><stop stop-opacity="1" stop-color="rgb(67.871094%, 35.731506%, 98.474121%)" offset="0.0234375"/><stop stop-opacity="1" stop-color="rgb(67.999268%, 35.9375%, 98.219299%)" offset="0.0273438"/><stop stop-opacity="1" stop-color="rgb(68.127441%, 36.143494%, 97.964478%)" offset="0.03125"/><stop stop-opacity="1" stop-color="rgb(68.255615%, 36.347961%, 97.709656%)" offset="0.0351563"/><stop stop-opacity="1" stop-color="rgb(68.383789%, 36.553955%, 97.45636%)" offset="0.0390625"/><stop stop-opacity="1" stop-color="rgb(68.511963%, 36.758423%, 97.201538%)" offset="0.0429688"/><stop stop-opacity="1" stop-color="rgb(68.641663%, 36.964417%, 96.948242%)" offset="0.046875"/><stop stop-opacity="1" stop-color="rgb(68.769836%, 37.17041%, 96.69342%)" offset="0.0507813"/><stop stop-opacity="1" stop-color="rgb(68.89801%, 37.376404%, 96.438599%)" offset="0.0546875"/><stop stop-opacity="1" stop-color="rgb(69.026184%, 37.580872%, 96.183777%)" offset="0.0585938"/><stop stop-opacity="1" stop-color="rgb(69.155884%, 37.786865%, 95.930481%)" offset="0.0625"/><stop stop-opacity="1" stop-color="rgb(69.284058%, 37.991333%, 95.675659%)" offset="0.0664063"/><stop stop-opacity="1" stop-color="rgb(69.412231%, 38.197327%, 95.422363%)" offset="0.0703125"/><stop stop-opacity="1" stop-color="rgb(69.540405%, 38.40332%, 95.167542%)" offset="0.0742188"/><stop stop-opacity="1" stop-color="rgb(69.670105%, 38.609314%, 94.91272%)" offset="0.078125"/><stop stop-opacity="1" stop-color="rgb(69.798279%, 38.813782%, 94.657898%)" offset="0.0820313"/><stop stop-opacity="1" stop-color="rgb(69.926453%, 39.019775%, 94.404602%)" offset="0.0859375"/><stop stop-opacity="1" stop-color="rgb(70.054626%, 39.224243%, 94.14978%)" offset="0.0898438"/><stop stop-opacity="1" stop-color="rgb(70.184326%, 39.430237%, 93.896484%)" offset="0.09375"/><stop stop-opacity="1" stop-color="rgb(70.3125%, 39.634705%, 93.641663%)" offset="0.0976563"/><stop stop-opacity="1" stop-color="rgb(70.440674%, 39.840698%, 93.386841%)" offset="0.101563"/><stop stop-opacity="1" stop-color="rgb(70.568848%, 40.046692%, 93.132019%)" offset="0.105469"/><stop stop-opacity="1" stop-color="rgb(70.697021%, 40.252686%, 92.878723%)" offset="0.109375"/><stop stop-opacity="1" stop-color="rgb(70.825195%, 40.457153%, 92.623901%)" offset="0.113281"/><stop stop-opacity="1" stop-color="rgb(70.954895%, 40.663147%, 92.370605%)" offset="0.117188"/><stop stop-opacity="1" stop-color="rgb(71.083069%, 40.867615%, 92.115784%)" offset="0.121094"/><stop stop-opacity="1" stop-color="rgb(71.211243%, 41.073608%, 91.862488%)" offset="0.125"/><stop stop-opacity="1" stop-color="rgb(71.339417%, 41.279602%, 91.607666%)" offset="0.128906"/><stop stop-opacity="1" stop-color="rgb(71.469116%, 41.485596%, 91.352844%)" offset="0.132812"/><stop stop-opacity="1" stop-color="rgb(71.59729%, 41.690063%, 91.098022%)" offset="0.136719"/><stop stop-opacity="1" stop-color="rgb(71.725464%, 41.896057%, 90.844727%)" offset="0.140625"/><stop stop-opacity="1" stop-color="rgb(71.853638%, 42.100525%, 90.589905%)" offset="0.144531"/><stop stop-opacity="1" stop-color="rgb(71.983337%, 42.306519%, 90.336609%)" offset="0.148438"/><stop stop-opacity="1" stop-color="rgb(72.111511%, 42.512512%, 90.081787%)" offset="0.152344"/><stop stop-opacity="1" stop-color="rgb(72.239685%, 42.718506%, 89.826965%)" offset="0.15625"/><stop stop-opacity="1" stop-color="rgb(72.367859%, 42.922974%, 89.572144%)" offset="0.160156"/><stop stop-opacity="1" stop-color="rgb(72.497559%, 43.128967%, 89.318848%)" offset="0.164062"/><stop stop-opacity="1" stop-color="rgb(72.625732%, 43.333435%, 89.064026%)" offset="0.167969"/><stop stop-opacity="1" stop-color="rgb(72.753906%, 43.539429%, 88.81073%)" offset="0.171875"/><stop stop-opacity="1" stop-color="rgb(72.88208%, 43.745422%, 88.555908%)" offset="0.175781"/><stop stop-opacity="1" stop-color="rgb(73.010254%, 43.951416%, 88.301086%)" offset="0.179688"/><stop stop-opacity="1" stop-color="rgb(73.138428%, 44.155884%, 88.046265%)" offset="0.183594"/><stop stop-opacity="1" stop-color="rgb(73.268127%, 44.361877%, 87.792969%)" offset="0.1875"/><stop stop-opacity="1" stop-color="rgb(73.396301%, 44.566345%, 87.538147%)" offset="0.191406"/><stop stop-opacity="1" stop-color="rgb(73.524475%, 44.772339%, 87.284851%)" offset="0.195312"/><stop stop-opacity="1" stop-color="rgb(73.652649%, 44.978333%, 87.030029%)" offset="0.199219"/><stop stop-opacity="1" stop-color="rgb(73.782349%, 45.184326%, 86.775208%)" offset="0.203125"/><stop stop-opacity="1" stop-color="rgb(73.910522%, 45.388794%, 86.520386%)" offset="0.207031"/><stop stop-opacity="1" stop-color="rgb(74.038696%, 45.594788%, 86.26709%)" offset="0.210938"/><stop stop-opacity="1" stop-color="rgb(74.16687%, 45.799255%, 86.012268%)" offset="0.214844"/><stop stop-opacity="1" stop-color="rgb(74.29657%, 46.005249%, 85.758972%)" offset="0.21875"/><stop stop-opacity="1" stop-color="rgb(74.424744%, 46.209717%, 85.50415%)" offset="0.222656"/><stop stop-opacity="1" stop-color="rgb(74.552917%, 46.41571%, 85.249329%)" offset="0.226562"/><stop stop-opacity="1" stop-color="rgb(74.681091%, 46.621704%, 84.994507%)" offset="0.230469"/><stop stop-opacity="1" stop-color="rgb(74.810791%, 46.827698%, 84.741211%)" offset="0.234375"/><stop stop-opacity="1" stop-color="rgb(74.938965%, 47.032166%, 84.486389%)" offset="0.238281"/><stop stop-opacity="1" stop-color="rgb(75.067139%, 47.238159%, 84.233093%)" offset="0.242188"/><stop stop-opacity="1" stop-color="rgb(75.195312%, 47.442627%, 83.978271%)" offset="0.246094"/><stop stop-opacity="1" stop-color="rgb(75.323486%, 47.648621%, 83.724976%)" offset="0.25"/><stop stop-opacity="1" stop-color="rgb(75.45166%, 47.854614%, 83.470154%)" offset="0.253906"/><stop stop-opacity="1" stop-color="rgb(75.58136%, 48.060608%, 83.215332%)" offset="0.257812"/><stop stop-opacity="1" stop-color="rgb(75.709534%, 48.265076%, 82.96051%)" offset="0.261719"/><stop stop-opacity="1" stop-color="rgb(75.837708%, 48.471069%, 82.707214%)" offset="0.265625"/><stop stop-opacity="1" stop-color="rgb(75.965881%, 48.675537%, 82.452393%)" offset="0.269531"/><stop stop-opacity="1" stop-color="rgb(76.095581%, 48.881531%, 82.199097%)" offset="0.273438"/><stop stop-opacity="1" stop-color="rgb(76.223755%, 49.087524%, 81.944275%)" offset="0.277344"/><stop stop-opacity="1" stop-color="rgb(76.351929%, 49.293518%, 81.689453%)" offset="0.28125"/><stop stop-opacity="1" stop-color="rgb(76.480103%, 49.497986%, 81.434631%)" offset="0.285156"/><stop stop-opacity="1" stop-color="rgb(76.609802%, 49.703979%, 81.181335%)" offset="0.289062"/><stop stop-opacity="1" stop-color="rgb(76.737976%, 49.908447%, 80.926514%)" offset="0.292969"/><stop stop-opacity="1" stop-color="rgb(76.86615%, 50.114441%, 80.673218%)" offset="0.296875"/><stop stop-opacity="1" stop-color="rgb(76.994324%, 50.320435%, 80.418396%)" offset="0.300781"/><stop stop-opacity="1" stop-color="rgb(77.124023%, 50.526428%, 80.163574%)" offset="0.304688"/><stop stop-opacity="1" stop-color="rgb(77.252197%, 50.730896%, 79.908752%)" offset="0.308594"/><stop stop-opacity="1" stop-color="rgb(77.380371%, 50.93689%, 79.655457%)" offset="0.3125"/><stop stop-opacity="1" stop-color="rgb(77.508545%, 51.141357%, 79.400635%)" offset="0.316406"/><stop stop-opacity="1" stop-color="rgb(77.638245%, 51.347351%, 79.147339%)" offset="0.320312"/><stop stop-opacity="1" stop-color="rgb(77.766418%, 51.553345%, 78.892517%)" offset="0.324219"/><stop stop-opacity="1" stop-color="rgb(77.894592%, 51.759338%, 78.637695%)" offset="0.328125"/><stop stop-opacity="1" stop-color="rgb(78.022766%, 51.963806%, 78.382874%)" offset="0.332031"/><stop stop-opacity="1" stop-color="rgb(78.15094%, 52.1698%, 78.129578%)" offset="0.335938"/><stop stop-opacity="1" stop-color="rgb(78.279114%, 52.374268%, 77.874756%)" offset="0.339844"/><stop stop-opacity="1" stop-color="rgb(78.408813%, 52.580261%, 77.62146%)" offset="0.34375"/><stop stop-opacity="1" stop-color="rgb(78.536987%, 52.784729%, 77.366638%)" offset="0.347656"/><stop stop-opacity="1" stop-color="rgb(78.665161%, 52.990723%, 77.111816%)" offset="0.351562"/><stop stop-opacity="1" stop-color="rgb(78.793335%, 53.196716%, 76.856995%)" offset="0.355469"/><stop stop-opacity="1" stop-color="rgb(78.923035%, 53.40271%, 76.603699%)" offset="0.359375"/><stop stop-opacity="1" stop-color="rgb(79.051208%, 53.607178%, 76.348877%)" offset="0.363281"/><stop stop-opacity="1" stop-color="rgb(79.179382%, 53.813171%, 76.095581%)" offset="0.367188"/><stop stop-opacity="1" stop-color="rgb(79.307556%, 54.017639%, 75.840759%)" offset="0.371094"/><stop stop-opacity="1" stop-color="rgb(79.437256%, 54.223633%, 75.587463%)" offset="0.375"/><stop stop-opacity="1" stop-color="rgb(79.56543%, 54.429626%, 75.332642%)" offset="0.378906"/><stop stop-opacity="1" stop-color="rgb(79.693604%, 54.63562%, 75.07782%)" offset="0.382812"/><stop stop-opacity="1" stop-color="rgb(79.821777%, 54.840088%, 74.822998%)" offset="0.386719"/><stop stop-opacity="1" stop-color="rgb(79.951477%, 55.046082%, 74.569702%)" offset="0.390625"/><stop stop-opacity="1" stop-color="rgb(80.079651%, 55.250549%, 74.31488%)" offset="0.394531"/><stop stop-opacity="1" stop-color="rgb(80.207825%, 55.456543%, 74.061584%)" offset="0.398438"/><stop stop-opacity="1" stop-color="rgb(80.335999%, 55.662537%, 73.806763%)" offset="0.402344"/><stop stop-opacity="1" stop-color="rgb(80.464172%, 55.86853%, 73.551941%)" offset="0.40625"/><stop stop-opacity="1" stop-color="rgb(80.592346%, 56.072998%, 73.297119%)" offset="0.410156"/><stop stop-opacity="1" stop-color="rgb(80.722046%, 56.278992%, 73.043823%)" offset="0.414062"/><stop stop-opacity="1" stop-color="rgb(80.85022%, 56.483459%, 72.789001%)" offset="0.417969"/><stop stop-opacity="1" stop-color="rgb(80.978394%, 56.689453%, 72.535706%)" offset="0.421875"/><stop stop-opacity="1" stop-color="rgb(81.106567%, 56.895447%, 72.280884%)" offset="0.425781"/><stop stop-opacity="1" stop-color="rgb(81.236267%, 57.10144%, 72.026062%)" offset="0.429688"/><stop stop-opacity="1" stop-color="rgb(81.364441%, 57.305908%, 71.77124%)" offset="0.433594"/><stop stop-opacity="1" stop-color="rgb(81.492615%, 57.511902%, 71.517944%)" offset="0.4375"/><stop stop-opacity="1" stop-color="rgb(81.620789%, 57.71637%, 71.263123%)" offset="0.441406"/><stop stop-opacity="1" stop-color="rgb(81.750488%, 57.922363%, 71.009827%)" offset="0.445312"/><stop stop-opacity="1" stop-color="rgb(81.878662%, 58.128357%, 70.755005%)" offset="0.449219"/><stop stop-opacity="1" stop-color="rgb(82.006836%, 58.334351%, 70.500183%)" offset="0.453125"/><stop stop-opacity="1" stop-color="rgb(82.13501%, 58.538818%, 70.245361%)" offset="0.457031"/><stop stop-opacity="1" stop-color="rgb(82.264709%, 58.744812%, 69.992065%)" offset="0.460938"/><stop stop-opacity="1" stop-color="rgb(82.392883%, 58.94928%, 69.737244%)" offset="0.464844"/><stop stop-opacity="1" stop-color="rgb(82.521057%, 59.155273%, 69.483948%)" offset="0.46875"/><stop stop-opacity="1" stop-color="rgb(82.649231%, 59.359741%, 69.229126%)" offset="0.472656"/><stop stop-opacity="1" stop-color="rgb(82.777405%, 59.565735%, 68.974304%)" offset="0.476562"/><stop stop-opacity="1" stop-color="rgb(82.905579%, 59.771729%, 68.719482%)" offset="0.480469"/><stop stop-opacity="1" stop-color="rgb(83.035278%, 59.977722%, 68.466187%)" offset="0.484375"/><stop stop-opacity="1" stop-color="rgb(83.163452%, 60.18219%, 68.211365%)" offset="0.488281"/><stop stop-opacity="1" stop-color="rgb(83.291626%, 60.388184%, 67.958069%)" offset="0.492188"/><stop stop-opacity="1" stop-color="rgb(83.4198%, 60.592651%, 67.703247%)" offset="0.496094"/><stop stop-opacity="1" stop-color="rgb(83.5495%, 60.798645%, 67.449951%)" offset="0.5"/><stop stop-opacity="1" stop-color="rgb(83.677673%, 61.004639%, 67.195129%)" offset="0.503906"/><stop stop-opacity="1" stop-color="rgb(83.805847%, 61.210632%, 66.940308%)" offset="0.507812"/><stop stop-opacity="1" stop-color="rgb(83.934021%, 61.4151%, 66.685486%)" offset="0.511719"/><stop stop-opacity="1" stop-color="rgb(84.063721%, 61.621094%, 66.43219%)" offset="0.515625"/><stop stop-opacity="1" stop-color="rgb(84.191895%, 61.825562%, 66.177368%)" offset="0.519531"/><stop stop-opacity="1" stop-color="rgb(84.320068%, 62.031555%, 65.924072%)" offset="0.523438"/><stop stop-opacity="1" stop-color="rgb(84.448242%, 62.237549%, 65.66925%)" offset="0.527344"/><stop stop-opacity="1" stop-color="rgb(84.577942%, 62.443542%, 65.414429%)" offset="0.53125"/><stop stop-opacity="1" stop-color="rgb(84.706116%, 62.64801%, 65.159607%)" offset="0.535156"/><stop stop-opacity="1" stop-color="rgb(84.83429%, 62.854004%, 64.906311%)" offset="0.539062"/><stop stop-opacity="1" stop-color="rgb(84.962463%, 63.058472%, 64.651489%)" offset="0.542969"/><stop stop-opacity="1" stop-color="rgb(85.092163%, 63.264465%, 64.398193%)" offset="0.546875"/><stop stop-opacity="1" stop-color="rgb(85.220337%, 63.470459%, 64.143372%)" offset="0.550781"/><stop stop-opacity="1" stop-color="rgb(85.348511%, 63.676453%, 63.88855%)" offset="0.554688"/><stop stop-opacity="1" stop-color="rgb(85.476685%, 63.88092%, 63.633728%)" offset="0.558594"/><stop stop-opacity="1" stop-color="rgb(85.604858%, 64.086914%, 63.380432%)" offset="0.5625"/><stop stop-opacity="1" stop-color="rgb(85.733032%, 64.291382%, 63.12561%)" offset="0.566406"/><stop stop-opacity="1" stop-color="rgb(85.862732%, 64.497375%, 62.872314%)" offset="0.570312"/><stop stop-opacity="1" stop-color="rgb(85.990906%, 64.703369%, 62.617493%)" offset="0.574219"/><stop stop-opacity="1" stop-color="rgb(86.11908%, 64.909363%, 62.362671%)" offset="0.578125"/><stop stop-opacity="1" stop-color="rgb(86.247253%, 65.113831%, 62.107849%)" offset="0.582031"/><stop stop-opacity="1" stop-color="rgb(86.376953%, 65.319824%, 61.854553%)" offset="0.585938"/><stop stop-opacity="1" stop-color="rgb(86.505127%, 65.524292%, 61.599731%)" offset="0.589844"/><stop stop-opacity="1" stop-color="rgb(86.633301%, 65.730286%, 61.346436%)" offset="0.59375"/><stop stop-opacity="1" stop-color="rgb(86.761475%, 65.934753%, 61.091614%)" offset="0.597656"/><stop stop-opacity="1" stop-color="rgb(86.891174%, 66.140747%, 60.836792%)" offset="0.601562"/><stop stop-opacity="1" stop-color="rgb(87.019348%, 66.346741%, 60.58197%)" offset="0.605469"/><stop stop-opacity="1" stop-color="rgb(87.147522%, 66.552734%, 60.328674%)" offset="0.609375"/><stop stop-opacity="1" stop-color="rgb(87.275696%, 66.757202%, 60.073853%)" offset="0.613281"/><stop stop-opacity="1" stop-color="rgb(87.405396%, 66.963196%, 59.820557%)" offset="0.617188"/><stop stop-opacity="1" stop-color="rgb(87.533569%, 67.167664%, 59.565735%)" offset="0.621094"/><stop stop-opacity="1" stop-color="rgb(87.661743%, 67.373657%, 59.312439%)" offset="0.625"/><stop stop-opacity="1" stop-color="rgb(87.789917%, 67.579651%, 59.057617%)" offset="0.628906"/><stop stop-opacity="1" stop-color="rgb(87.918091%, 67.785645%, 58.802795%)" offset="0.632812"/><stop stop-opacity="1" stop-color="rgb(88.046265%, 67.990112%, 58.547974%)" offset="0.636719"/><stop stop-opacity="1" stop-color="rgb(88.175964%, 68.196106%, 58.294678%)" offset="0.640625"/><stop stop-opacity="1" stop-color="rgb(88.304138%, 68.400574%, 58.039856%)" offset="0.644531"/><stop stop-opacity="1" stop-color="rgb(88.432312%, 68.606567%, 57.78656%)" offset="0.648438"/><stop stop-opacity="1" stop-color="rgb(88.560486%, 68.812561%, 57.531738%)" offset="0.652344"/><stop stop-opacity="1" stop-color="rgb(88.690186%, 69.018555%, 57.276917%)" offset="0.65625"/><stop stop-opacity="1" stop-color="rgb(88.818359%, 69.223022%, 57.022095%)" offset="0.660156"/><stop stop-opacity="1" stop-color="rgb(88.946533%, 69.429016%, 56.768799%)" offset="0.664062"/><stop stop-opacity="1" stop-color="rgb(89.074707%, 69.633484%, 56.513977%)" offset="0.667969"/><stop stop-opacity="1" stop-color="rgb(89.204407%, 69.839478%, 56.260681%)" offset="0.671875"/><stop stop-opacity="1" stop-color="rgb(89.332581%, 70.045471%, 56.005859%)" offset="0.675781"/><stop stop-opacity="1" stop-color="rgb(89.460754%, 70.251465%, 55.751038%)" offset="0.679688"/><stop stop-opacity="1" stop-color="rgb(89.588928%, 70.455933%, 55.496216%)" offset="0.683594"/><stop stop-opacity="1" stop-color="rgb(89.718628%, 70.661926%, 55.24292%)" offset="0.6875"/><stop stop-opacity="1" stop-color="rgb(89.846802%, 70.866394%, 54.988098%)" offset="0.691406"/><stop stop-opacity="1" stop-color="rgb(89.974976%, 71.072388%, 54.734802%)" offset="0.695312"/><stop stop-opacity="1" stop-color="rgb(90.103149%, 71.278381%, 54.47998%)" offset="0.699219"/><stop stop-opacity="1" stop-color="rgb(90.231323%, 71.484375%, 54.225159%)" offset="0.703125"/><stop stop-opacity="1" stop-color="rgb(90.359497%, 71.688843%, 53.970337%)" offset="0.707031"/><stop stop-opacity="1" stop-color="rgb(90.489197%, 71.894836%, 53.717041%)" offset="0.710938"/><stop stop-opacity="1" stop-color="rgb(90.617371%, 72.099304%, 53.462219%)" offset="0.714844"/><stop stop-opacity="1" stop-color="rgb(90.745544%, 72.305298%, 53.208923%)" offset="0.71875"/><stop stop-opacity="1" stop-color="rgb(90.873718%, 72.509766%, 52.954102%)" offset="0.722656"/><stop stop-opacity="1" stop-color="rgb(91.003418%, 72.715759%, 52.69928%)" offset="0.726562"/><stop stop-opacity="1" stop-color="rgb(91.131592%, 72.921753%, 52.444458%)" offset="0.730469"/><stop stop-opacity="1" stop-color="rgb(91.259766%, 73.127747%, 52.191162%)" offset="0.734375"/><stop stop-opacity="1" stop-color="rgb(91.387939%, 73.332214%, 51.93634%)" offset="0.738281"/><stop stop-opacity="1" stop-color="rgb(91.517639%, 73.538208%, 51.683044%)" offset="0.742188"/><stop stop-opacity="1" stop-color="rgb(91.645813%, 73.742676%, 51.428223%)" offset="0.746094"/><stop stop-opacity="1" stop-color="rgb(91.773987%, 73.948669%, 51.174927%)" offset="0.75"/><stop stop-opacity="1" stop-color="rgb(91.902161%, 74.154663%, 50.920105%)" offset="0.753906"/><stop stop-opacity="1" stop-color="rgb(92.03186%, 74.360657%, 50.665283%)" offset="0.757812"/><stop stop-opacity="1" stop-color="rgb(92.160034%, 74.565125%, 50.410461%)" offset="0.761719"/><stop stop-opacity="1" stop-color="rgb(92.288208%, 74.771118%, 50.157166%)" offset="0.765625"/><stop stop-opacity="1" stop-color="rgb(92.416382%, 74.975586%, 49.902344%)" offset="0.769531"/><stop stop-opacity="1" stop-color="rgb(92.546082%, 75.18158%, 49.649048%)" offset="0.773438"/><stop stop-opacity="1" stop-color="rgb(92.674255%, 75.387573%, 49.394226%)" offset="0.777344"/><stop stop-opacity="1" stop-color="rgb(92.802429%, 75.593567%, 49.139404%)" offset="0.78125"/><stop stop-opacity="1" stop-color="rgb(92.930603%, 75.798035%, 48.884583%)" offset="0.785156"/><stop stop-opacity="1" stop-color="rgb(93.058777%, 76.004028%, 48.631287%)" offset="0.789062"/><stop stop-opacity="1" stop-color="rgb(93.186951%, 76.208496%, 48.376465%)" offset="0.792969"/><stop stop-opacity="1" stop-color="rgb(93.31665%, 76.41449%, 48.123169%)" offset="0.796875"/><stop stop-opacity="1" stop-color="rgb(93.444824%, 76.620483%, 47.868347%)" offset="0.800781"/><stop stop-opacity="1" stop-color="rgb(93.572998%, 76.826477%, 47.613525%)" offset="0.804688"/><stop stop-opacity="1" stop-color="rgb(93.701172%, 77.030945%, 47.358704%)" offset="0.808594"/><stop stop-opacity="1" stop-color="rgb(93.830872%, 77.236938%, 47.105408%)" offset="0.8125"/><stop stop-opacity="1" stop-color="rgb(93.959045%, 77.441406%, 46.850586%)" offset="0.816406"/><stop stop-opacity="1" stop-color="rgb(94.087219%, 77.6474%, 46.59729%)" offset="0.820312"/><stop stop-opacity="1" stop-color="rgb(94.215393%, 77.851868%, 46.342468%)" offset="0.824219"/><stop stop-opacity="1" stop-color="rgb(94.345093%, 78.057861%, 46.087646%)" offset="0.828125"/><stop stop-opacity="1" stop-color="rgb(94.473267%, 78.263855%, 45.832825%)" offset="0.832031"/><stop stop-opacity="1" stop-color="rgb(94.60144%, 78.469849%, 45.579529%)" offset="0.835938"/><stop stop-opacity="1" stop-color="rgb(94.729614%, 78.674316%, 45.324707%)" offset="0.839844"/><stop stop-opacity="1" stop-color="rgb(94.859314%, 78.88031%, 45.071411%)" offset="0.84375"/><stop stop-opacity="1" stop-color="rgb(94.987488%, 79.084778%, 44.816589%)" offset="0.847656"/><stop stop-opacity="1" stop-color="rgb(95.115662%, 79.290771%, 44.561768%)" offset="0.851562"/><stop stop-opacity="1" stop-color="rgb(95.243835%, 79.496765%, 44.306946%)" offset="0.855469"/><stop stop-opacity="1" stop-color="rgb(95.372009%, 79.702759%, 44.05365%)" offset="0.859375"/><stop stop-opacity="1" stop-color="rgb(95.500183%, 79.907227%, 43.798828%)" offset="0.863281"/><stop stop-opacity="1" stop-color="rgb(95.629883%, 80.11322%, 43.545532%)" offset="0.867188"/><stop stop-opacity="1" stop-color="rgb(95.758057%, 80.317688%, 43.29071%)" offset="0.871094"/><stop stop-opacity="1" stop-color="rgb(95.88623%, 80.523682%, 43.037415%)" offset="0.875"/><stop stop-opacity="1" stop-color="rgb(96.014404%, 80.729675%, 42.782593%)" offset="0.878906"/><stop stop-opacity="1" stop-color="rgb(96.144104%, 80.935669%, 42.527771%)" offset="0.882812"/><stop stop-opacity="1" stop-color="rgb(96.272278%, 81.140137%, 42.272949%)" offset="0.886719"/><stop stop-opacity="1" stop-color="rgb(96.400452%, 81.34613%, 42.019653%)" offset="0.890625"/><stop stop-opacity="1" stop-color="rgb(96.528625%, 81.550598%, 41.764832%)" offset="0.894531"/><stop stop-opacity="1" stop-color="rgb(96.658325%, 81.756592%, 41.511536%)" offset="0.898438"/><stop stop-opacity="1" stop-color="rgb(96.786499%, 81.962585%, 41.256714%)" offset="0.902344"/><stop stop-opacity="1" stop-color="rgb(96.914673%, 82.168579%, 41.001892%)" offset="0.90625"/><stop stop-opacity="1" stop-color="rgb(97.042847%, 82.373047%, 40.74707%)" offset="0.910156"/><stop stop-opacity="1" stop-color="rgb(97.172546%, 82.579041%, 40.493774%)" offset="0.914062"/><stop stop-opacity="1" stop-color="rgb(97.30072%, 82.783508%, 40.238953%)" offset="0.917969"/><stop stop-opacity="1" stop-color="rgb(97.428894%, 82.989502%, 39.985657%)" offset="0.921875"/><stop stop-opacity="1" stop-color="rgb(97.557068%, 83.195496%, 39.730835%)" offset="0.925781"/><stop stop-opacity="1" stop-color="rgb(97.685242%, 83.401489%, 39.476013%)" offset="0.929688"/><stop stop-opacity="1" stop-color="rgb(97.813416%, 83.605957%, 39.221191%)" offset="0.933594"/><stop stop-opacity="1" stop-color="rgb(97.943115%, 83.811951%, 38.967896%)" offset="0.9375"/><stop stop-opacity="1" stop-color="rgb(98.071289%, 84.016418%, 38.713074%)" offset="0.941406"/><stop stop-opacity="1" stop-color="rgb(98.199463%, 84.222412%, 38.459778%)" offset="0.945312"/><stop stop-opacity="1" stop-color="rgb(98.327637%, 84.42688%, 38.204956%)" offset="0.949219"/><stop stop-opacity="1" stop-color="rgb(98.457336%, 84.632874%, 37.950134%)" offset="0.953125"/><stop stop-opacity="1" stop-color="rgb(98.58551%, 84.838867%, 37.695312%)" offset="0.957031"/><stop stop-opacity="1" stop-color="rgb(98.713684%, 85.044861%, 37.442017%)" offset="0.960938"/><stop stop-opacity="1" stop-color="rgb(98.841858%, 85.249329%, 37.187195%)" offset="0.964844"/><stop stop-opacity="1" stop-color="rgb(98.971558%, 85.455322%, 36.933899%)" offset="0.96875"/><stop stop-opacity="1" stop-color="rgb(99.099731%, 85.65979%, 36.679077%)" offset="0.972656"/><stop stop-opacity="1" stop-color="rgb(99.227905%, 85.865784%, 36.424255%)" offset="0.976562"/><stop stop-opacity="1" stop-color="rgb(99.356079%, 86.071777%, 36.169434%)" offset="0.980469"/><stop stop-opacity="1" stop-color="rgb(99.485779%, 86.277771%, 35.916138%)" offset="0.984375"/><stop stop-opacity="1" stop-color="rgb(99.613953%, 86.482239%, 35.661316%)" offset="0.988281"/><stop stop-opacity="1" stop-color="rgb(99.742126%, 86.688232%, 35.40802%)" offset="0.992188"/><stop stop-opacity="1" stop-color="rgb(99.8703%, 86.8927%, 35.153198%)" offset="0.996094"/><stop stop-opacity="1" stop-color="rgb(100%, 87.098694%, 34.899902%)" offset="1"/></linearGradient></defs><g clip-path="url(#b7ce93ddf9)"><g clip-path="url(#9913b31c4b)"><path fill="url(#79cfd4a517)" d="M 27.65625 119.886719 L 27.65625 271.988281 L 138.277344 271.988281 L 138.277344 119.886719 Z M 27.65625 119.886719 " fill-rule="nonzero"/></g></g><g fill="#ffffff" fill-opacity="1"><g transform="translate(155.905525, 184.79453)"><g><path d="M 31.25 -44.640625 C 31.25 -43.328125 31.132812 -42.179688 30.90625 -41.203125 L 20.609375 -41.203125 C 20.835938 -40.285156 20.953125 -39.140625 20.953125 -37.765625 C 20.953125 -36.453125 20.835938 -35.3125 20.609375 -34.34375 C 20.835938 -33.425781 20.953125 -32.28125 20.953125 -30.90625 C 20.953125 -29.582031 20.835938 -28.4375 20.609375 -27.46875 C 20.835938 -26.550781 20.953125 -25.40625 20.953125 -24.03125 C 20.953125 -22.71875 20.835938 -21.578125 20.609375 -20.609375 C 20.835938 -19.691406 20.953125 -18.546875 20.953125 -17.171875 C 20.953125 -15.847656 20.835938 -14.703125 20.609375 -13.734375 C 20.835938 -12.816406 20.953125 -11.671875 20.953125 -10.296875 C 20.953125 -8.984375 20.835938 -7.84375 20.609375 -6.875 C 20.835938 -5.957031 20.953125 -4.8125 20.953125 -3.4375 C 20.953125 -2.113281 20.835938 -0.96875 20.609375 0 L 13.734375 0 C 13.503906 -0.96875 13.390625 -2.113281 13.390625 -3.4375 C 13.390625 -4.8125 13.503906 -5.957031 13.734375 -6.875 C 13.503906 -7.84375 13.390625 -8.984375 13.390625 -10.296875 C 13.390625 -11.671875 13.503906 -12.816406 13.734375 -13.734375 C 13.503906 -14.703125 13.390625 -15.847656 13.390625 -17.171875 C 13.390625 -18.546875 13.503906 -19.691406 13.734375 -20.609375 C 13.503906 -21.578125 13.390625 -22.71875 13.390625 -24.03125 C 13.390625 -25.40625 13.503906 -26.550781 13.734375 -27.46875 C 13.503906 -28.4375 13.390625 -29.582031 13.390625 -30.90625 C 13.390625 -32.28125 13.503906 -33.425781 13.734375 -34.34375 C 13.503906 -35.3125 13.390625 -36.453125 13.390625 -37.765625 C 13.390625 -39.140625 13.503906 -40.285156 13.734375 -41.203125 L 3.4375 -41.203125 C 3.207031 -42.179688 3.09375 -43.328125 3.09375 -44.640625 C 3.09375 -46.015625 3.207031 -47.160156 3.4375 -48.078125 L 30.90625 -48.078125 C 31.132812 -47.160156 31.25 -46.015625 31.25 -44.640625 Z M 31.25 -44.640625 "/></g></g></g><g fill="#ffffff" fill-opacity="1"><g transform="translate(190.243022, 184.79453)"><g><path d="M 30.90625 -41.203125 C 31.132812 -40.285156 31.25 -39.140625 31.25 -37.765625 C 31.25 -36.453125 31.132812 -35.3125 30.90625 -34.34375 C 31.132812 -33.425781 31.25 -32.28125 31.25 -30.90625 C 31.25 -29.582031 31.132812 -28.4375 30.90625 -27.46875 C 31.132812 -26.550781 31.25 -25.40625 31.25 -24.03125 C 31.25 -22.71875 31.132812 -21.578125 30.90625 -20.609375 C 31.132812 -19.691406 31.25 -18.546875 31.25 -17.171875 C 31.25 -15.847656 31.132812 -14.703125 30.90625 -13.734375 C 31.132812 -12.816406 31.25 -11.671875 31.25 -10.296875 C 31.25 -8.984375 31.132812 -7.84375 30.90625 -6.875 C 31.132812 -5.957031 31.25 -4.8125 31.25 -3.4375 C 31.25 -2.113281 31.132812 -0.96875 30.90625 0 L 24.03125 0 C 23.800781 -0.96875 23.6875 -2.113281 23.6875 -3.4375 C 23.6875 -4.8125 23.800781 -5.957031 24.03125 -6.875 C 23.800781 -7.84375 23.6875 -8.984375 23.6875 -10.296875 C 23.6875 -11.671875 23.800781 -12.816406 24.03125 -13.734375 C 23.800781 -14.703125 23.6875 -15.847656 23.6875 -17.171875 C 23.6875 -18.546875 23.800781 -19.691406 24.03125 -20.609375 L 10.296875 -20.609375 C 10.523438 -19.691406 10.640625 -18.546875 10.640625 -17.171875 C 10.640625 -15.847656 10.523438 -14.703125 10.296875 -13.734375 C 10.523438 -12.816406 10.640625 -11.671875 10.640625 -10.296875 C 10.640625 -8.984375 10.523438 -7.84375 10.296875 -6.875 C 10.523438 -5.957031 10.640625 -4.8125 10.640625 -3.4375 C 10.640625 -2.113281 10.523438 -0.96875 10.296875 0 L 3.4375 0 C 3.207031 -0.96875 3.09375 -2.113281 3.09375 -3.4375 C 3.09375 -4.8125 3.207031 -5.957031 3.4375 -6.875 C 3.207031 -7.84375 3.09375 -8.984375 3.09375 -10.296875 C 3.09375 -11.671875 3.207031 -12.816406 3.4375 -13.734375 C 3.207031 -14.703125 3.09375 -15.847656 3.09375 -17.171875 C 3.09375 -18.546875 3.207031 -19.691406 3.4375 -20.609375 C 3.207031 -21.578125 3.09375 -22.71875 3.09375 -24.03125 C 3.09375 -25.40625 3.207031 -26.550781 3.4375 -27.46875 C 3.207031 -28.4375 3.09375 -29.582031 3.09375 -30.90625 C 3.09375 -32.28125 3.207031 -33.425781 3.4375 -34.34375 C 3.207031 -35.3125 3.09375 -36.453125 3.09375 -37.765625 C 3.09375 -39.140625 3.207031 -40.285156 3.4375 -41.203125 C 3.207031 -42.179688 3.09375 -43.328125 3.09375 -44.640625 C 3.09375 -46.015625 3.207031 -47.160156 3.4375 -48.078125 L 10.296875 -48.078125 C 10.523438 -47.160156 10.640625 -46.015625 10.640625 -44.640625 C 10.640625 -43.328125 10.523438 -42.179688 10.296875 -41.203125 C 10.523438 -40.285156 10.640625 -39.140625 10.640625 -37.765625 C 10.640625 -36.453125 10.523438 -35.3125 10.296875 -34.34375 C 10.523438 -33.425781 10.640625 -32.28125 10.640625 -30.90625 C 10.640625 -29.582031 10.523438 -28.4375 10.296875 -27.46875 L 24.03125 -27.46875 C 23.800781 -28.4375 23.6875 -29.582031 23.6875 -30.90625 C 23.6875 -32.28125 23.800781 -33.425781 24.03125 -34.34375 C 23.800781 -35.3125 23.6875 -36.453125 23.6875 -37.765625 C 23.6875 -39.140625 23.800781 -40.285156 24.03125 -41.203125 C 23.800781 -42.179688 23.6875 -43.328125 23.6875 -44.640625 C 23.6875 -46.015625 23.800781 -47.160156 24.03125 -48.078125 L 30.90625 -48.078125 C 31.132812 -47.160156 31.25 -46.015625 31.25 -44.640625 C 31.25 -43.328125 31.132812 -42.179688 30.90625 -41.203125 Z M 30.90625 -41.203125 "/></g></g></g><g fill="#ffffff" fill-opacity="1"><g transform="translate(224.580518, 184.79453)"><g><path d="M 13.734375 -20.609375 C 13.960938 -19.691406 14.078125 -18.546875 14.078125 -17.171875 C 14.078125 -15.847656 13.960938 -14.703125 13.734375 -13.734375 C 13.960938 -12.816406 14.078125 -11.671875 14.078125 -10.296875 C 14.078125 -8.984375 13.960938 -7.84375 13.734375 -6.875 L 27.46875 -6.875 C 27.695312 -5.957031 27.8125 -4.8125 27.8125 -3.4375 C 27.8125 -2.113281 27.695312 -0.96875 27.46875 0 L 6.875 0 C 6.644531 -0.96875 6.53125 -2.113281 6.53125 -3.4375 C 6.53125 -4.8125 6.644531 -5.957031 6.875 -6.875 C 6.644531 -7.84375 6.53125 -8.984375 6.53125 -10.296875 C 6.53125 -11.671875 6.644531 -12.816406 6.875 -13.734375 C 6.644531 -14.703125 6.53125 -15.847656 6.53125 -17.171875 C 6.53125 -18.546875 6.644531 -19.691406 6.875 -20.609375 C 6.644531 -21.578125 6.53125 -22.71875 6.53125 -24.03125 C 6.53125 -25.40625 6.644531 -26.550781 6.875 -27.46875 C 6.644531 -28.4375 6.53125 -29.582031 6.53125 -30.90625 C 6.53125 -32.28125 6.644531 -33.425781 6.875 -34.34375 C 6.644531 -35.3125 6.53125 -36.453125 6.53125 -37.765625 C 6.53125 -39.140625 6.644531 -40.285156 6.875 -41.203125 C 6.644531 -42.179688 6.53125 -43.328125 6.53125 -44.640625 C 6.53125 -46.015625 6.644531 -47.160156 6.875 -48.078125 L 27.46875 -48.078125 C 27.695312 -47.160156 27.8125 -46.015625 27.8125 -44.640625 C 27.8125 -43.328125 27.695312 -42.179688 27.46875 -41.203125 L 13.734375 -41.203125 C 13.960938 -40.285156 14.078125 -39.140625 14.078125 -37.765625 C 14.078125 -36.453125 13.960938 -35.3125 13.734375 -34.34375 C 13.960938 -33.425781 14.078125 -32.28125 14.078125 -30.90625 C 14.078125 -29.582031 13.960938 -28.4375 13.734375 -27.46875 L 27.46875 -27.46875 C 27.695312 -26.550781 27.8125 -25.40625 27.8125 -24.03125 C 27.8125 -22.71875 27.695312 -21.578125 27.46875 -20.609375 Z M 13.734375 -20.609375 "/></g></g></g><g fill="#ffffff" fill-opacity="1"><g transform="translate(156.901619, 256.180075)"><g><path d="M 39.078125 -34.734375 C 39.367188 -33.578125 39.515625 -32.128906 39.515625 -30.390625 C 39.515625 -28.734375 39.367188 -27.289062 39.078125 -26.0625 C 39.367188 -24.894531 39.515625 -23.445312 39.515625 -21.71875 C 39.515625 -20.050781 39.367188 -18.601562 39.078125 -17.375 C 39.367188 -16.21875 39.515625 -14.769531 39.515625 -13.03125 C 39.515625 -11.363281 39.367188 -9.914062 39.078125 -8.6875 L 34.734375 -8.6875 C 35.023438 -7.53125 35.171875 -6.082031 35.171875 -4.34375 C 35.171875 -2.675781 35.023438 -1.226562 34.734375 0 L 13.03125 0 C 12.738281 -1.226562 12.59375 -2.675781 12.59375 -4.34375 C 12.59375 -6.082031 12.738281 -7.53125 13.03125 -8.6875 L 8.6875 -8.6875 C 8.394531 -9.914062 8.25 -11.363281 8.25 -13.03125 C 8.25 -14.769531 8.394531 -16.21875 8.6875 -17.375 L 4.34375 -17.375 C 4.050781 -18.601562 3.90625 -20.050781 3.90625 -21.71875 C 3.90625 -23.445312 4.050781 -24.894531 4.34375 -26.0625 C 4.050781 -27.289062 3.90625 -28.734375 3.90625 -30.390625 C 3.90625 -32.128906 4.050781 -33.578125 4.34375 -34.734375 C 4.050781 -35.960938 3.90625 -37.410156 3.90625 -39.078125 C 3.90625 -40.816406 4.050781 -42.265625 4.34375 -43.421875 L 8.6875 -43.421875 C 8.394531 -44.648438 8.25 -46.097656 8.25 -47.765625 C 8.25 -49.503906 8.394531 -50.953125 8.6875 -52.109375 L 13.03125 -52.109375 C 12.738281 -53.335938 12.59375 -54.785156 12.59375 -56.453125 C 12.59375 -58.191406 12.738281 -59.640625 13.03125 -60.796875 L 34.734375 -60.796875 C 35.023438 -59.640625 35.171875 -58.191406 35.171875 -56.453125 C 35.171875 -54.785156 35.023438 -53.335938 34.734375 -52.109375 L 39.078125 -52.109375 C 39.367188 -50.953125 39.515625 -49.503906 39.515625 -47.765625 C 39.515625 -46.097656 39.367188 -44.648438 39.078125 -43.421875 L 30.390625 -43.421875 C 30.109375 -44.648438 29.96875 -46.097656 29.96875 -47.765625 C 29.96875 -49.503906 30.109375 -50.953125 30.390625 -52.109375 L 17.375 -52.109375 C 17.65625 -50.953125 17.796875 -49.503906 17.796875 -47.765625 C 17.796875 -46.097656 17.65625 -44.648438 17.375 -43.421875 L 13.03125 -43.421875 C 13.320312 -42.265625 13.46875 -40.816406 13.46875 -39.078125 C 13.46875 -37.410156 13.320312 -35.960938 13.03125 -34.734375 C 13.320312 -33.578125 13.46875 -32.128906 13.46875 -30.390625 C 13.46875 -28.734375 13.320312 -27.289062 13.03125 -26.0625 C 13.320312 -24.894531 13.46875 -23.445312 13.46875 -21.71875 C 13.46875 -20.050781 13.320312 -18.601562 13.03125 -17.375 L 17.375 -17.375 C 17.65625 -16.21875 17.796875 -14.769531 17.796875 -13.03125 C 17.796875 -11.363281 17.65625 -9.914062 17.375 -8.6875 L 30.390625 -8.6875 C 30.109375 -9.914062 29.96875 -11.363281 29.96875 -13.03125 C 29.96875 -14.769531 30.109375 -16.21875 30.390625 -17.375 C 30.109375 -18.601562 29.96875 -20.050781 29.96875 -21.71875 C 29.96875 -23.445312 30.109375 -24.894531 30.390625 -26.0625 L 23.890625 -26.0625 C 23.597656 -27.289062 23.453125 -28.734375 23.453125 -30.390625 C 23.453125 -32.128906 23.597656 -33.578125 23.890625 -34.734375 Z M 39.078125 -34.734375 "/></g></g></g><g fill="#ffffff" fill-opacity="1"><g transform="translate(200.321931, 256.180075)"><g><path d="M 32.5625 -8.6875 C 32.851562 -7.53125 33 -6.082031 33 -4.34375 C 33 -2.675781 32.851562 -1.226562 32.5625 0 L 10.859375 0 C 10.566406 -1.226562 10.421875 -2.675781 10.421875 -4.34375 C 10.421875 -6.082031 10.566406 -7.53125 10.859375 -8.6875 L 17.375 -8.6875 C 17.082031 -9.914062 16.9375 -11.363281 16.9375 -13.03125 C 16.9375 -14.769531 17.082031 -16.21875 17.375 -17.375 C 17.082031 -18.601562 16.9375 -20.050781 16.9375 -21.71875 C 16.9375 -23.445312 17.082031 -24.894531 17.375 -26.0625 C 17.082031 -27.289062 16.9375 -28.734375 16.9375 -30.390625 C 16.9375 -32.128906 17.082031 -33.578125 17.375 -34.734375 C 17.082031 -35.960938 16.9375 -37.410156 16.9375 -39.078125 C 16.9375 -40.816406 17.082031 -42.265625 17.375 -43.421875 C 17.082031 -44.648438 16.9375 -46.097656 16.9375 -47.765625 C 16.9375 -49.503906 17.082031 -50.953125 17.375 -52.109375 L 10.859375 -52.109375 C 10.566406 -53.335938 10.421875 -54.785156 10.421875 -56.453125 C 10.421875 -58.191406 10.566406 -59.640625 10.859375 -60.796875 L 32.5625 -60.796875 C 32.851562 -59.640625 33 -58.191406 33 -56.453125 C 33 -54.785156 32.851562 -53.335938 32.5625 -52.109375 L 26.0625 -52.109375 C 26.34375 -50.953125 26.484375 -49.503906 26.484375 -47.765625 C 26.484375 -46.097656 26.34375 -44.648438 26.0625 -43.421875 C 26.34375 -42.265625 26.484375 -40.816406 26.484375 -39.078125 C 26.484375 -37.410156 26.34375 -35.960938 26.0625 -34.734375 C 26.34375 -33.578125 26.484375 -32.128906 26.484375 -30.390625 C 26.484375 -28.734375 26.34375 -27.289062 26.0625 -26.0625 C 26.34375 -24.894531 26.484375 -23.445312 26.484375 -21.71875 C 26.484375 -20.050781 26.34375 -18.601562 26.0625 -17.375 C 26.34375 -16.21875 26.484375 -14.769531 26.484375 -13.03125 C 26.484375 -11.363281 26.34375 -9.914062 26.0625 -8.6875 Z M 32.5625 -8.6875 "/></g></g></g><g fill="#ffffff" fill-opacity="1"><g transform="translate(243.742243, 256.180075)"><g><path d="M 39.515625 -47.765625 C 39.515625 -46.097656 39.367188 -44.648438 39.078125 -43.421875 C 39.367188 -42.265625 39.515625 -40.816406 39.515625 -39.078125 C 39.515625 -37.410156 39.367188 -35.960938 39.078125 -34.734375 L 34.734375 -34.734375 C 35.023438 -33.578125 35.171875 -32.128906 35.171875 -30.390625 C 35.171875 -28.734375 35.023438 -27.289062 34.734375 -26.0625 L 13.03125 -26.0625 C 13.320312 -24.894531 13.46875 -23.445312 13.46875 -21.71875 C 13.46875 -20.050781 13.320312 -18.601562 13.03125 -17.375 C 13.320312 -16.21875 13.46875 -14.769531 13.46875 -13.03125 C 13.46875 -11.363281 13.320312 -9.914062 13.03125 -8.6875 C 13.320312 -7.53125 13.46875 -6.082031 13.46875 -4.34375 C 13.46875 -2.675781 13.320312 -1.226562 13.03125 0 L 4.34375 0 C 4.050781 -1.226562 3.90625 -2.675781 3.90625 -4.34375 C 3.90625 -6.082031 4.050781 -7.53125 4.34375 -8.6875 C 4.050781 -9.914062 3.90625 -11.363281 3.90625 -13.03125 C 3.90625 -14.769531 4.050781 -16.21875 4.34375 -17.375 C 4.050781 -18.601562 3.90625 -20.050781 3.90625 -21.71875 C 3.90625 -23.445312 4.050781 -24.894531 4.34375 -26.0625 C 4.050781 -27.289062 3.90625 -28.734375 3.90625 -30.390625 C 3.90625 -32.128906 4.050781 -33.578125 4.34375 -34.734375 C 4.050781 -35.960938 3.90625 -37.410156 3.90625 -39.078125 C 3.90625 -40.816406 4.050781 -42.265625 4.34375 -43.421875 C 4.050781 -44.648438 3.90625 -46.097656 3.90625 -47.765625 C 3.90625 -49.503906 4.050781 -50.953125 4.34375 -52.109375 C 4.050781 -53.335938 3.90625 -54.785156 3.90625 -56.453125 C 3.90625 -58.191406 4.050781 -59.640625 4.34375 -60.796875 L 34.734375 -60.796875 C 35.023438 -59.640625 35.171875 -58.191406 35.171875 -56.453125 C 35.171875 -54.785156 35.023438 -53.335938 34.734375 -52.109375 L 39.078125 -52.109375 C 39.367188 -50.953125 39.515625 -49.503906 39.515625 -47.765625 Z M 30.390625 -34.734375 C 30.109375 -35.960938 29.96875 -37.410156 29.96875 -39.078125 C 29.96875 -40.816406 30.109375 -42.265625 30.390625 -43.421875 C 30.109375 -44.648438 29.96875 -46.097656 29.96875 -47.765625 C 29.96875 -49.503906 30.109375 -50.953125 30.390625 -52.109375 L 13.03125 -52.109375 C 13.320312 -50.953125 13.46875 -49.503906 13.46875 -47.765625 C 13.46875 -46.097656 13.320312 -44.648438 13.03125 -43.421875 C 13.320312 -42.265625 13.46875 -40.816406 13.46875 -39.078125 C 13.46875 -37.410156 13.320312 -35.960938 13.03125 -34.734375 Z M 30.390625 -34.734375 "/></g></g></g><g fill="#ffffff" fill-opacity="1"><g transform="translate(287.162555, 256.180075)"><g><path d="M 39.078125 -52.109375 C 39.367188 -50.953125 39.515625 -49.503906 39.515625 -47.765625 C 39.515625 -46.097656 39.367188 -44.648438 39.078125 -43.421875 C 39.367188 -42.265625 39.515625 -40.816406 39.515625 -39.078125 C 39.515625 -37.410156 39.367188 -35.960938 39.078125 -34.734375 C 39.367188 -33.578125 39.515625 -32.128906 39.515625 -30.390625 C 39.515625 -28.734375 39.367188 -27.289062 39.078125 -26.0625 C 39.367188 -24.894531 39.515625 -23.445312 39.515625 -21.71875 C 39.515625 -20.050781 39.367188 -18.601562 39.078125 -17.375 C 39.367188 -16.21875 39.515625 -14.769531 39.515625 -13.03125 C 39.515625 -11.363281 39.367188 -9.914062 39.078125 -8.6875 C 39.367188 -7.53125 39.515625 -6.082031 39.515625 -4.34375 C 39.515625 -2.675781 39.367188 -1.226562 39.078125 0 L 30.390625 0 C 30.109375 -1.226562 29.96875 -2.675781 29.96875 -4.34375 C 29.96875 -6.082031 30.109375 -7.53125 30.390625 -8.6875 C 30.109375 -9.914062 29.96875 -11.363281 29.96875 -13.03125 C 29.96875 -14.769531 30.109375 -16.21875 30.390625 -17.375 C 30.109375 -18.601562 29.96875 -20.050781 29.96875 -21.71875 C 29.96875 -23.445312 30.109375 -24.894531 30.390625 -26.0625 L 13.03125 -26.0625 C 13.320312 -24.894531 13.46875 -23.445312 13.46875 -21.71875 C 13.46875 -20.050781 13.320312 -18.601562 13.03125 -17.375 C 13.320312 -16.21875 13.46875 -14.769531 13.46875 -13.03125 C 13.46875 -11.363281 13.320312 -9.914062 13.03125 -8.6875 C 13.320312 -7.53125 13.46875 -6.082031 13.46875 -4.34375 C 13.46875 -2.675781 13.320312 -1.226562 13.03125 0 L 4.34375 0 C 4.050781 -1.226562 3.90625 -2.675781 3.90625 -4.34375 C 3.90625 -6.082031 4.050781 -7.53125 4.34375 -8.6875 C 4.050781 -9.914062 3.90625 -11.363281 3.90625 -13.03125 C 3.90625 -14.769531 4.050781 -16.21875 4.34375 -17.375 C 4.050781 -18.601562 3.90625 -20.050781 3.90625 -21.71875 C 3.90625 -23.445312 4.050781 -24.894531 4.34375 -26.0625 C 4.050781 -27.289062 3.90625 -28.734375 3.90625 -30.390625 C 3.90625 -32.128906 4.050781 -33.578125 4.34375 -34.734375 C 4.050781 -35.960938 3.90625 -37.410156 3.90625 -39.078125 C 3.90625 -40.816406 4.050781 -42.265625 4.34375 -43.421875 C 4.050781 -44.648438 3.90625 -46.097656 3.90625 -47.765625 C 3.90625 -49.503906 4.050781 -50.953125 4.34375 -52.109375 C 4.050781 -53.335938 3.90625 -54.785156 3.90625 -56.453125 C 3.90625 -58.191406 4.050781 -59.640625 4.34375 -60.796875 L 13.03125 -60.796875 C 13.320312 -59.640625 13.46875 -58.191406 13.46875 -56.453125 C 13.46875 -54.785156 13.320312 -53.335938 13.03125 -52.109375 C 13.320312 -50.953125 13.46875 -49.503906 13.46875 -47.765625 C 13.46875 -46.097656 13.320312 -44.648438 13.03125 -43.421875 C 13.320312 -42.265625 13.46875 -40.816406 13.46875 -39.078125 C 13.46875 -37.410156 13.320312 -35.960938 13.03125 -34.734375 L 30.390625 -34.734375 C 30.109375 -35.960938 29.96875 -37.410156 29.96875 -39.078125 C 29.96875 -40.816406 30.109375 -42.265625 30.390625 -43.421875 C 30.109375 -44.648438 29.96875 -46.097656 29.96875 -47.765625 C 29.96875 -49.503906 30.109375 -50.953125 30.390625 -52.109375 C 30.109375 -53.335938 29.96875 -54.785156 29.96875 -56.453125 C 29.96875 -58.191406 30.109375 -59.640625 30.390625 -60.796875 L 39.078125 -60.796875 C 39.367188 -59.640625 39.515625 -58.191406 39.515625 -56.453125 C 39.515625 -54.785156 39.367188 -53.335938 39.078125 -52.109375 Z M 39.078125 -52.109375 "/></g></g></g><g fill="#ffffff" fill-opacity="1"><g transform="translate(330.582867, 256.180075)"><g><path d="M 39.515625 -56.453125 C 39.515625 -54.785156 39.367188 -53.335938 39.078125 -52.109375 C 39.367188 -50.953125 39.515625 -49.503906 39.515625 -47.765625 C 39.515625 -46.097656 39.367188 -44.648438 39.078125 -43.421875 L 34.734375 -43.421875 C 35.023438 -42.265625 35.171875 -40.816406 35.171875 -39.078125 C 35.171875 -37.410156 35.023438 -35.960938 34.734375 -34.734375 L 30.390625 -34.734375 C 30.679688 -33.578125 30.828125 -32.128906 30.828125 -30.390625 C 30.828125 -28.734375 30.679688 -27.289062 30.390625 -26.0625 L 26.0625 -26.0625 C 26.34375 -24.894531 26.484375 -23.445312 26.484375 -21.71875 C 26.484375 -20.050781 26.34375 -18.601562 26.0625 -17.375 C 26.34375 -16.21875 26.484375 -14.769531 26.484375 -13.03125 C 26.484375 -11.363281 26.34375 -9.914062 26.0625 -8.6875 C 26.34375 -7.53125 26.484375 -6.082031 26.484375 -4.34375 C 26.484375 -2.675781 26.34375 -1.226562 26.0625 0 L 17.375 0 C 17.082031 -1.226562 16.9375 -2.675781 16.9375 -4.34375 C 16.9375 -6.082031 17.082031 -7.53125 17.375 -8.6875 C 17.082031 -9.914062 16.9375 -11.363281 16.9375 -13.03125 C 16.9375 -14.769531 17.082031 -16.21875 17.375 -17.375 C 17.082031 -18.601562 16.9375 -20.050781 16.9375 -21.71875 C 16.9375 -23.445312 17.082031 -24.894531 17.375 -26.0625 L 13.03125 -26.0625 C 12.738281 -27.289062 12.59375 -28.734375 12.59375 -30.390625 C 12.59375 -32.128906 12.738281 -33.578125 13.03125 -34.734375 L 8.6875 -34.734375 C 8.394531 -35.960938 8.25 -37.410156 8.25 -39.078125 C 8.25 -40.816406 8.394531 -42.265625 8.6875 -43.421875 L 4.34375 -43.421875 C 4.050781 -44.648438 3.90625 -46.097656 3.90625 -47.765625 C 3.90625 -49.503906 4.050781 -50.953125 4.34375 -52.109375 C 4.050781 -53.335938 3.90625 -54.785156 3.90625 -56.453125 C 3.90625 -58.191406 4.050781 -59.640625 4.34375 -60.796875 L 13.03125 -60.796875 C 13.320312 -59.640625 13.46875 -58.191406 13.46875 -56.453125 C 13.46875 -54.785156 13.320312 -53.335938 13.03125 -52.109375 C 13.320312 -50.953125 13.46875 -49.503906 13.46875 -47.765625 C 13.46875 -46.097656 13.320312 -44.648438 13.03125 -43.421875 L 17.375 -43.421875 C 17.65625 -42.265625 17.796875 -40.816406 17.796875 -39.078125 C 17.796875 -37.410156 17.65625 -35.960938 17.375 -34.734375 L 26.0625 -34.734375 C 25.769531 -35.960938 25.625 -37.410156 25.625 -39.078125 C 25.625 -40.816406 25.769531 -42.265625 26.0625 -43.421875 L 30.390625 -43.421875 C 30.109375 -44.648438 29.96875 -46.097656 29.96875 -47.765625 C 29.96875 -49.503906 30.109375 -50.953125 30.390625 -52.109375 C 30.109375 -53.335938 29.96875 -54.785156 29.96875 -56.453125 C 29.96875 -58.191406 30.109375 -59.640625 30.390625 -60.796875 L 39.078125 -60.796875 C 39.367188 -59.640625 39.515625 -58.191406 39.515625 -56.453125 Z M 39.515625 -56.453125 "/></g></g></g></svg>